<svg xmlns="http://www.w3.org/2000/svg" height="1em" viewBox="0 0 640 512"><!--! Font Awesome Pro 6.4.2 by @fontawesome - https://fontawesome.com License - https://fontawesome.com/license (Commercial License) Copyright 2023 Fonticons, Inc. --><path d="M0 80L0 229.5c0 17 6.7 33.3 18.7 45.3c58.7 58.7 117.3 117.3 176 176c25 25 65.5 25 90.5 0c13.3-13.3 26.7-26.7 40-40c-3.4-13.7-5.2-28-5.2-42.8c0-65 35.2-121.8 87.6-152.3c-55-55-110-110-164.9-164.9c-12-12-28.3-18.7-45.3-18.7c-49.8 0-99.6 0-149.4 0C21.5 32 0 53.5 0 80zm112 32c17.7 0 32 14.3 32 32s-14.3 32-32 32s-32-14.3-32-32s14.3-32 32-32zM352 368c0-79.5 64.5-144 144-144s144 64.5 144 144s-64.5 144-144 144s-144-64.5-144-144zm120.1-28.9c-.1-2 .3-3 .8-3.6c.6-.9 1.8-2.1 4.2-3.4c5.1-2.7 12.5-4.1 18.7-4c8.2 .1 17.1 1.8 26.4 4.1c8.6 2.1 17.3-3.1 19.4-11.7s-3.1-17.3-11.7-19.4c-5.6-1.4-11.6-2.7-17.9-3.7c0-3.1 0-6.3 0-9.4c0-8.8-7.2-16-16-16s-16 7.2-16 16c0 3.2 0 6.3 0 9.5c-6.1 1.2-12.3 3.2-18 6.3c-11.8 6.3-23 18.4-21.8 37.2c1 16 11.7 25.3 21.6 30.7c8.8 4.7 19.7 7.8 28.6 10.3c.6 .2 1.2 .3 1.8 .5c10.3 2.9 17.9 5.2 23.2 8.3c4.5 2.7 4.7 4.2 4.7 5.6c.1 2.4-.5 3.7-1 4.5c-.6 1-1.8 2.1-4 3.3c-4.7 2.5-11.8 3.8-18.5 3.6c-9.5-.3-18.5-3.1-29.9-6.8c-1.9-.6-3.8-1.2-5.8-1.8c-8.4-2.6-17.4 2.1-20 10.5s2.1 17.4 10.5 20c1.6 .5 3.3 1 5 1.6c7.1 2.3 15.1 4.9 23.7 6.6c0 3.8 0 7.6 0 11.4c0 8.8 7.2 16 16 16s16-7.2 16-16c0-3.6 0-7.2 0-10.8c6.2-1.1 12.5-3.1 18.3-6.2c12.1-6.5 22.3-18.7 21.7-36.9c-.5-16.2-10.3-26.3-20.5-32.3c-9.4-5.6-21.2-8.9-30.5-11.5c-.1 0-.1 0-.2 0c-10.4-2.9-18.3-5.2-23.9-8.2c-4.8-2.6-4.8-4-4.8-4.5z"/></svg>